<?xml version="1.0" encoding="UTF-8"?>
<svg width="1200pt" height="1200pt" version="1.1" viewBox="0 0 1200 1200" xmlns="http://www.w3.org/2000/svg">
 <g fill="#682078">
  <path d="m840 756h-156v72h156c35.008 0 68.582-13.906 93.34-38.66 24.754-24.758 38.66-58.332 38.66-93.34v-336c0-35.008-13.906-68.582-38.66-93.34-24.758-24.754-58.332-38.66-93.34-38.66h-336c-35.008 0-68.582 13.906-93.34 38.66-24.754 24.758-38.66 58.332-38.66 93.34v156h72v-156c0-15.914 6.3203-31.176 17.574-42.426 11.25-11.254 26.512-17.574 42.426-17.574h336c15.914 0 31.176 6.3203 42.426 17.574 11.254 11.25 17.574 26.512 17.574 42.426v336c0 15.914-6.3203 31.176-17.574 42.426-11.25 11.254-26.512 17.574-42.426 17.574z"/>
  <path d="m444 972v-144h144v-72h-144v-144h-72v144h-144v72h144v144z"/>
 </g>
 <g fill="none" transform="scale(0.6) translate(480, 300)" 
    stroke="#682078" 
    stroke-width="5">
  <path transform="scale(12)" d="m45 30-20 20 20 20"/>
  <path transform="scale(12)" d="m60 30 20 20-20 20"/>
  <path transform="scale(12)" d="m52.5 30v30"/>
  <path transform="scale(12)" d="m52.5 65v5"/>
 </g>
</svg>
